#!OML:ASF H:\ManfredETheater\Project 1\Capture day 1\Session 1\subject.ASF
:FULLY-SPECIFIED
:DEGREES
46
root -0.737348 15.1092 16.4079 -177.745 -7.87585 -180.415
lowerback 20.9434 -1.44469 -0.318434
upperback 1.30706 -2.08119 2.5662
thorax -10.2045 -1.05563 3.64942
lowerneck -17.8979 -2.267 -3.27136
upperneck 3.80465 -2.56536 0.166645
head 4.02318 -1.42082 0.348257
rclavicle 2.08724e-014 2.8625e-014
rhumerus -57.5502 0.57481 -58.0873
rradius 40.2345
rwrist 0.794633
rhand -23.9094 3.16333
rfingers 7.12502
rthumb 2.56489 -26.801
lclavicle 2.08724e-014 2.8625e-014
lhumerus -43.1121 -5.78656 88.7137
lradius 80.8699
lwrist 0.128343
lhand -28.299 -13.6294
lfingers 7.12502
lthumb -1.67474 16.3438
rfemur -54.8785 -9.2457 28.7534
rtibia 66.9746
rfoot -10.2184 -9.39134
rtoes -12.4239
lfemur -26.212 -2.06174 -12.4246
ltibia 103.899
lfoot -20.8785 -7.70383
ltoes -11.1571
47
root -0.696084 15.1016 15.9691 -178.114 -8.0555 -179.321
lowerback 21.0657 -1.31183 0.235576
upperback 1.40166 -1.77268 2.91352
thorax -10.1896 -0.941623 3.63205
lowerneck -17.7032 -2.38631 -3.21333
upperneck 3.77563 -2.74261 0.256509
head 3.98777 -1.49767 0.354553
rclavicle -3.06128e-014 -7.15625e-015
rhumerus -55.1035 0.741629 -58.999
rradius 41.0241
rwrist 0.977083
rhand -24.2191 2.55667
rfingers 7.12502
rthumb 2.26574 -27.411
lclavicle -3.06128e-014 -7.15625e-015
lhumerus -43.1869 -4.65928 87.4888
lradius 78.0666
lwrist 0.410823
lhand -28.4385 -13.778
lfingers 7.12502
lthumb -1.8094 16.1941
rfemur -53.3743 -9.59012 30.196
rtibia 68.1921
rfoot -12.6736 -10.1648
rtoes -13.6131
lfemur -31.3358 -1.7043 -11.2091
ltibia 105.885
lfoot -21.1448 -6.90026
ltoes -10.5577
48
root -0.657156 15.0973 15.5289 -178.409 -8.33109 -178.509
lowerback 21.0686 -1.20514 0.561315
upperback 1.45674 -1.55134 3.17932
thorax -10.143 -0.85596 3.67532
lowerneck -17.4845 -2.50311 -3.14465
upperneck 3.84181 -2.91139 0.330949
head 3.97789 -1.56934 0.355013
rclavicle 1.94809e-014 -4.77083e-015
rhumerus -52.7962 1.18419 -60.0688
rradius 42.1228
rwrist 0.915931
rhand -24.6767 1.98361
rfingers 7.12502
rthumb 1.82378 -27.9883
lclavicle 1.94809e-014 -4.77083e-015
lhumerus -43.3857 -3.85284 86.3469
lradius 75.4244
lwrist 0.46429
lhand -28.6125 -13.9926
lfingers 7.12502
lthumb -1.9775 15.978
rfemur -51.8578 -10.1342 31.3324
rtibia 69.2844
rfoot -15.0357 -10.903
rtoes -14.9063
lfemur -36.4614 -1.67094 -10.5772
ltibia 106.983
lfoot -21.236 -5.8562
ltoes -10.4259
49
root -0.622456 15.0969 15.0869 -178.687 -8.61863 -177.931
lowerback 21.0138 -1.1018 0.731479
upperback 1.49337 -1.3725 3.357
thorax -10.0813 -0.781724 3.71992
lowerneck -17.2508 -2.62222 -3.07446
upperneck 3.96888 -3.08057 0.410908
head 3.98468 -1.63979 0.356872
rclavicle -3.35946e-014 5.00937e-014
rhumerus -50.6596 1.88027 -61.2536
rradius 43.5469
rwrist 0.655883
rhand -25.2052 1.51191
rfingers 7.12502
rthumb 1.31337 -28.4638
lclavicle -3.35946e-014 5.00937e-014
lhumerus -43.717 -3.42305 85.3027
lradius 73.0168
lwrist 0.34386
lhand -28.8226 -14.2297
lfingers 7.12502
lthumb -2.18034 15.7389
rfemur -50.2803 -10.7985 32.1771
rtibia 70.2935
rfoot -17.2693 -11.5451
rtoes -16.3947
lfemur -41.3704 -1.93476 -10.4272
ltibia 107.164
lfoot -21.1813 -4.62276
ltoes -10.544
50
root -0.593071 15.1016 14.6422 -179.017 -8.84525 -177.525
lowerback 20.9784 -0.985066 0.824281
upperback 1.53085 -1.19763 3.44813
thorax -10.0295 -0.705592 3.71456
lowerneck -17.0129 -2.7437 -3.0017
upperneck 4.1286 -3.2533 0.504087
head 4.00111 -1.71082 0.362077
rclavicle 1.51076e-014 -1.19271e-014
rhumerus -48.7156 2.7726 -62.4944
rradius 45.2894
rwrist 0.319087
rhand -25.717 1.19462
rfingers 7.12502
rthumb 0.819075 -28.7835
lclavicle 1.51076e-014 -1.19271e-014
lhumerus -44.2019 -3.3834 84.3626
lradius 70.9243
lwrist 0.154651
lhand -29.0436 -14.4705
lfingers 7.12502
lthumb -2.3938 15.4958
rfemur -48.5599 -11.512 32.7633
rtibia 71.2373
rfoot -19.3263 -12.0568
rtoes -18.1225
lfemur -45.8339 -2.43636 -10.6039
ltibia 106.426
lfoot -21.0276 -3.32481
ltoes -10.5782
51
root -0.569225 15.1113 14.1941 -179.434 -8.93425 -177.218
lowerback 20.9942 -0.833661 0.910578
upperback 1.58964 -0.984606 3.46518
thorax -9.98519 -0.612529 3.6209
lowerneck -16.7986 -2.87092 -2.93387
upperneck 4.29082 -3.43536 0.62158
head 4.02254 -1.78561 0.374551
rclavicle -6.55989e-015 7.95139e-016
rhumerus -46.9563 3.7699 -63.7286
rradius 47.328
rwrist 0.0228226
rhand -26.1172 1.06571
rfingers 7.12502
rthumb 0.432559 -28.9136
lclavicle -6.55989e-015 7.95139e-016
lhumerus -44.8436 -3.71666 83.533
lradius 69.2133
lwrist 0.0281176
lhand -29.2472 -14.7194
lfingers 7.12502
lthumb -2.59044 15.2446
rfemur -46.6522 -12.1866 33.1453
rtibia 72.1188
rfoot -21.1551 -12.4129
rtoes -20.0905
lfemur -49.7024 -3.05437 -10.9412
ltibia 104.802
lfoot -20.8156 -2.10861
ltoes -10.464
52
root -0.55008 15.126 13.7418 -179.895 -8.85459 -177.02
lowerback 21.018 -0.636439 0.968816
upperback 1.67099 -0.723806 3.41045
thorax -9.92243 -0.496882 3.44916
lowerneck -16.6168 -3.00398 -2.88356
upperneck 4.43256 -3.62639 0.773193
head 4.04373 -1.8641 0.399343
rclavicle -1.55052e-014 4.69132e-014
rhumerus -45.3596 4.7824 -64.904
rradius 49.6202
rwrist -0.10053
rhand -26.3327 1.15956
rfingers 7.12502
rthumb 0.224392 -28.8201
lclavicle -1.55052e-014 4.69132e-014
lhumerus -45.647 -4.35753 82.811
lradius 67.9197
lwrist 0.0384112
lhand -29.4243 -14.9647
lfingers 7.12502
lthumb -2.7615 14.9972
rfemur -44.6023 -12.7605 33.3108
rtibia 72.9302
rfoot -22.7016 -12.5785
rtoes -22.1766
lfemur -52.9465 -3.70792 -11.3793
ltibia 102.338
lfoot -20.57 -1.12122
ltoes -10.2301
53
root -0.534259 15.1498 13.2849 -180.378 -8.58797 -176.916
lowerback 21.0195 -0.386029 0.998774
upperback 1.77713 -0.405943 3.29644
thorax -9.82142 -0.354273 3.20997
lowerneck -16.4689 -3.14289 -2.86461
upperneck 4.53954 -3.82459 0.963334
head 4.06098 -1.94562 0.440197
rclavicle -8.64713e-015 6.36111e-015
rhumerus -43.899 5.73222 -65.9864
rradius 52.1119
rwrist 0.0255219
rhand -26.3669 1.48655
rfingers 7.12502
rthumb 0.191398 -28.4931
lclavicle -8.64713e-015 6.36111e-015
lhumerus -46.604 -5.21467 82.1861
lradius 67.0342
lwrist 0.186415
lhand -29.5413 -15.2072
lfingers 7.12502
lthumb -2.87449 14.7532
rfemur -42.4142 -13.1826 33.2772
rtibia 73.6306
rfoot -23.9127 -12.5461
rtoes -24.3612
lfemur -55.5262 -4.3023 -11.8585
ltibia 99.0511
lfoot -20.2503 -0.492806
ltoes -9.88442
54
root -0.519957 15.1927 12.8245 -180.862 -8.13365 -176.885
lowerback 20.9807 -0.0832518 1.01032
upperback 1.90082 -0.0286421 3.13932
thorax -9.67949 -0.183381 2.91579
lowerneck -16.3375 -3.28744 -2.88495
upperneck 4.59925 -4.02819 1.18854
head 4.06807 -2.02975 0.497778
rclavicle -4.96962e-016 -7.95139e-015
rhumerus -42.5544 6.57387 -66.965
rradius 54.7419
rwrist 0.41569
rhand -26.246 2.01529
rfingers 7.12502
rthumb 0.308144 -27.9642
lclavicle -4.96962e-016 -7.95139e-015
lhumerus -47.7023 -6.18354 81.6409
lradius 66.5084
lwrist 0.406808
lhand -29.6026 -15.4199
lfingers 7.12502
lthumb -2.93369 14.5397
rfemur -40.0783 -13.4207 33.0737
rtibia 74.1607
rfoot -24.7796 -12.2983
rtoes -26.4986
lfemur -57.3899 -4.7683 -12.3309
ltibia 94.938
lfoot -19.8233 -0.310674
ltoes -9.55647
55
root -0.506285 15.2583 12.3621 -181.319 -7.52165 -176.903
lowerback 20.8669 0.259909 1.01487
upperback 2.03168 0.396944 2.95758
thorax -9.48771 0.0111447 2.58491
lowerneck -16.2111 -3.43496 -2.94159
upperneck 4.61778 -4.23191 1.42607
head 4.06468 -2.1151 0.565152
rclavicle 8.94531e-015 2.0276e-014
rhumerus -41.3064 7.29674 -67.8458
rradius 57.4454
rwrist 1.0061
rhand -26.0197 2.63961
rfingers 7.12502
rthumb 0.526695 -27.3395
lclavicle 8.94531e-015 2.0276e-014
lhumerus -48.9124 -7.16525 81.1557
lradius 66.2604
lwrist 0.616538
lhand -29.6241 -15.5859
lfingers 7.12502
lthumb -2.95445 14.3734
rfemur -37.6391 -13.4814 32.7429
rtibia 74.4952
rfoot -25.2969 -11.8443
rtoes -28.5076
lfemur -58.5487 -5.08531 -12.7606
ltibia 90.0346
lfoot -19.275 -0.560526
ltoes -9.57569
56
root -0.494545 15.335 11.8976 -181.738 -6.77766 -176.941
lowerback 20.6569 0.632705 1.03141
upperback 2.16236 0.86306 2.77185
thorax -9.24156 0.225923 2.23377
lowerneck -16.084 -3.5827 -3.02233
upperneck 4.61705 -4.43086 1.64495
head 4.05579 -2.20047 0.631146
rclavicle 6.26172e-015 -3.77691e-014
rhumerus -40.1344 7.91656 -68.6443
rradius 60.159
rwrist 1.66295
rhand -25.7708 3.29276
rfingers 7.12502
rthumb 0.767103 -26.6856
lclavicle 6.26172e-015 -3.77691e-014
lhumerus -50.2037 -8.07419 80.7094
lradius 66.2014
lwrist 0.753603
lhand -29.5869 -15.6796
lfingers 7.12502
lthumb -2.91855 14.2802
rfemur -35.1813 -13.3719 32.3347
rtibia 74.6788
rfoot -25.4816 -11.2027
rtoes -30.3469
lfemur -59.1087 -5.25102 -13.115
ltibia 84.4835
lfoot -18.5706 -1.19923
ltoes -10.1349
57
root -0.485875 15.4128 11.4303 -182.116 -5.9415 -176.976
lowerback 20.353 1.01743 1.07639
upperback 2.27801 1.3533 2.59715
thorax -8.95756 0.45399 1.87699
lowerneck -15.9224 -3.7228 -3.12605
upperneck 4.6076 -4.61384 1.83693
head 4.03889 -2.28037 0.694488
rclavicle -7.85199e-015 1.66979e-014
rhumerus -39.0322 8.47423 -69.3832
rradius 62.8145
rwrist 2.24051
rhand -25.582 3.91041
rfingers 7.12502
rthumb 0.949475 -26.0672
lclavicle -7.85199e-015 1.66979e-014
lhumerus -51.5584 -8.85509 80.2878
lradius 66.2443
lwrist 0.804077
lhand -29.4963 -15.7
lfingers 7.12502
lthumb -2.83101 14.2609
rfemur -32.7549 -13.1241 31.8835
rtibia 74.7597
rfoot -25.4166 -10.4014
rtoes -31.9753
lfemur -59.1664 -5.30606 -13.3685
ltibia 78.4247
lfoot -17.6344 -2.13622
ltoes -11.2048
